<svg width="81" height="35" viewBox="0 0 81 35" fill="none" xmlns="http://www.w3.org/2000/svg">
<g clip-path="url(#clip0)">
<path d="M34.2148 16.3771C34.0257 16.6578 33.9312 17.0321 33.7422 17.3129C32.608 19.1845 30.9067 20.4947 28.9219 21.4305C28.1658 21.8049 28.1658 22.2728 28.2603 23.0214C28.8274 26.7648 25.9919 31.8182 22.5893 33.4091C22.3058 33.5027 22.1167 33.5027 21.8332 33.6899C21.4551 33.8771 20.9826 33.8771 20.51 34.0642C20.2264 34.1578 19.9429 34.2514 19.6593 34.345C18.7142 34.4386 18.7142 33.6899 18.5251 33.1284C17.9581 30.1337 17.391 27.1391 16.8239 24.0509C16.5403 22.5535 16.3513 20.9626 14.839 20.1204C14.65 20.0268 14.461 19.746 14.461 19.4653C14.461 19.2781 14.5555 19.091 14.839 19.091C15.2171 19.091 15.5006 19.3717 15.9732 19.5589C15.5006 16.845 14.9335 14.2247 14.5555 11.6979C14.461 11.3236 14.3665 10.8557 14.3665 10.4813C14.3665 9.91985 14.5555 9.45193 15.1226 9.35835C19.2813 8.70327 23.2509 7.39311 27.5041 7.48669C30.9067 7.58027 34.4038 11.0428 34.5928 14.4118C34.5928 14.6926 34.5928 14.9733 34.4983 15.2541C34.4038 15.5348 34.4983 16.0027 34.2148 16.3771Z" fill="#70B22C"/>
<path d="M14.7445 19.3717C16.6348 20.4947 17.1074 22.2727 17.3909 24.3316C17.8635 27.4198 18.5251 30.4144 18.9977 33.4091C19.0922 34.0642 19.2812 34.2513 19.9428 34.1578C20.0373 34.2513 20.0373 34.2513 20.0373 34.3449C20.0373 34.4385 20.0373 34.4385 19.9428 34.4385C15.6896 35.6551 11.72 35.0936 8.12836 32.3797C7.56126 32.0054 7.08868 31.9118 6.52159 32.0989C4.34772 32.6604 2.26838 33.2219 0 33.5963C1.51225 32.3797 2.92999 31.0695 4.53676 29.8529C5.10385 29.385 5.19837 29.0107 4.91482 28.262C2.26838 22.7406 4.91482 16.0963 10.6803 13.7567C10.8693 13.6631 11.1529 13.2888 11.4364 13.6631C11.6254 13.8503 11.8145 14.131 11.909 14.4118C12.0035 14.6925 12.098 14.9733 12.287 15.254C12.4761 15.7219 12.6651 16.1898 13.0432 16.4706C13.2322 16.6578 13.4212 16.9385 13.5158 17.2193C13.7048 18.0615 14.4609 18.5294 14.7445 19.3717Z" fill="white"/>
<path d="M13.4213 17.3131C13.1378 17.2195 12.9488 16.9387 12.9488 16.5644C12.4762 16.2837 12.1926 15.8157 12.1926 15.3478C12.0981 15.0671 11.9091 14.7863 11.8146 14.5056C11.8146 14.2248 11.531 13.9441 11.6255 13.6633C11.342 11.6981 11.342 9.73285 12.0036 7.76761C13.7049 2.71414 19.3758 -0.654845 24.9523 0.000234693C29.5835 0.561732 32.9861 2.80772 34.9709 7.01895C35.2545 7.58045 35.727 7.58045 36.1996 7.67403C37.8064 7.8612 39.6967 7.95478 41.587 8.23553C39.8857 8.89061 38.279 9.63927 36.5777 10.2944C35.9161 10.5751 35.538 10.8558 35.6325 11.6981C35.7271 13.1018 35.2545 14.412 34.6874 15.7222C34.3093 15.7222 34.4038 15.535 34.4983 15.2542C34.4983 10.2944 30.2451 6.83179 25.2358 7.67403C22.0223 8.23553 18.8087 8.89061 15.5952 9.45211C14.7446 9.63927 14.7446 10.0136 14.9336 10.6687C15.5007 13.6633 16.0678 16.658 16.6349 19.6526C16.6349 19.7462 16.6349 19.9334 16.6349 20.2141C16.0678 19.8398 15.5952 19.4655 15.1226 19.0911C14.1775 18.7168 13.7049 18.0617 13.4213 17.3131Z" fill="white"/>
<path d="M21.8331 33.5028C25.8028 31.3504 28.1657 28.1686 27.9767 23.6766C27.9767 21.9921 28.3547 21.1499 29.867 20.5884C31.4737 19.9333 32.5134 18.436 33.8366 17.313C33.3641 18.1552 33.6476 18.5296 34.4983 18.9975C35.727 19.559 36.5776 20.682 36.9557 21.9921C38.1844 26.2969 36.7666 30.9761 31.3792 32.0991C28.2602 32.7542 25.1412 33.2221 22.0222 33.7836C21.7386 33.7836 21.7386 33.69 21.8331 33.5028Z" fill="white"/>
<path d="M64.4598 29.1978C64.5543 26.9518 64.7434 24.5187 65.1214 22.1791C65.3105 21.1497 65.6885 20.9625 66.6337 21.1497C67.5788 21.3369 68.4295 21.8048 69.4691 21.1497C70.1308 20.7754 70.8869 21.2433 71.454 21.8984C72.7772 23.4893 72.3991 26.6711 70.7924 27.8877C70.0362 28.4492 69.1856 28.7299 68.2404 28.3556C67.5788 28.0748 67.3898 28.3556 67.3898 28.9171C67.3898 29.6657 67.2953 30.3208 67.3898 31.0695C67.4843 31.8181 67.1063 31.9117 66.4446 31.8181C64.6488 31.631 64.3653 31.3502 64.4598 29.1978Z" fill="white"/>
<path d="M72.7773 24.8929C72.6828 24.1442 72.8718 23.302 73.3444 22.6469C73.817 21.8046 74.6676 20.9624 75.6128 21.056C77.125 21.3367 78.6373 20.8688 80.1495 21.3367C80.8111 21.5239 81.0947 21.8046 80.9056 22.6469C80.5276 24.3314 80.244 26.0159 80.3386 27.7004C80.3386 28.3554 80.1495 28.5426 79.4879 28.449C79.2044 28.449 78.9208 28.449 78.7318 28.449C77.7866 28.2619 76.936 28.1683 75.8963 28.3554C74.006 28.6362 72.7773 27.2324 72.7773 24.8929Z" fill="white"/>
<path d="M39.4131 25.0801C39.4131 22.8341 40.4528 21.056 42.154 21.056C43.7608 21.056 45.3676 20.8688 46.9743 21.3368C47.5414 21.5239 47.7305 21.8047 47.5414 22.3662C47.1634 24.0507 46.8798 25.8287 46.8798 27.6068C46.8798 28.2619 46.5963 28.4491 46.0292 28.4491C45.7456 28.4491 45.4621 28.4491 45.2731 28.4491C44.3279 28.2619 43.4773 28.1683 42.4376 28.3555C40.6418 28.6362 39.4131 27.2325 39.4131 25.0801Z" fill="white"/>
<path d="M51.8891 24.706C51.4165 25.829 51.0384 26.7648 50.6604 27.7006C50.3768 28.4493 49.9987 28.5429 49.4316 28.1685C49.1481 27.9814 48.77 27.7942 48.4865 27.607C47.9194 27.2327 47.8249 26.952 48.2975 26.3905C49.2426 25.1739 49.9042 23.8637 50.2823 22.3664C50.4713 21.6177 50.8494 21.337 51.6055 21.2434C54.0629 20.8691 54.252 20.9627 55.1026 23.2086C55.5752 24.5188 55.9532 25.829 56.3313 27.1391C56.5203 27.7942 56.3313 28.075 55.6697 28.1685C55.5752 28.1685 55.4807 28.1685 55.4807 28.2621C53.4013 28.8236 53.4958 28.8236 52.7397 26.8584C52.3616 26.1097 52.1726 25.4546 51.8891 24.706Z" fill="white"/>
<path d="M60.301 26.016C60.9627 26.8583 61.7188 26.6711 62.2859 26.2968C62.853 25.9225 63.1365 26.2032 63.4201 26.6711C63.7981 27.2326 63.5146 27.4198 63.1365 27.7005C61.8133 28.7299 59.734 28.9171 58.3162 27.9813C57.0875 27.139 56.6149 25.6417 57.0875 23.8636C57.5601 22.1791 58.9778 21.0562 60.7736 21.0562C62.0968 21.0562 63.231 21.8048 63.4201 22.8342C63.7036 23.9572 62.9475 25.1738 61.7188 25.6417C61.3407 25.7353 60.8681 25.8289 60.301 26.016Z" fill="white"/>
<path d="M21.8332 33.5024C21.9277 33.596 21.9277 33.596 22.0222 33.6896C21.7387 33.9704 21.1716 33.8768 20.888 34.0639C20.7935 34.0639 20.699 33.9704 20.699 33.8768C20.9825 33.7832 21.4551 33.596 21.8332 33.5024Z" fill="#BADB97"/>
<path d="M20.6045 33.877C20.699 33.9705 20.7935 33.9705 20.7935 34.0641C20.51 34.1577 20.2264 34.2513 19.9429 34.3449C19.9429 34.2513 19.9429 34.1577 19.9429 34.0641C20.1319 33.877 20.4154 33.877 20.6045 33.877Z" fill="#9DCC6C"/>
<path d="M11.531 13.6631C11.7201 13.9438 11.8146 14.2246 11.8146 14.5989C11.7201 14.6925 11.6256 14.6925 11.6256 14.5989C11.531 14.3182 11.4365 14.0374 11.4365 13.7567C11.4365 13.6631 11.531 13.6631 11.531 13.6631Z" fill="#F5F9F1"/>
<path d="M30.3395 13.2886C30.3395 14.5052 29.3943 15.5346 28.0711 15.5346C26.9369 15.5346 25.8972 14.5052 25.8972 13.3822C25.8972 12.1656 26.9369 11.1362 28.1656 11.1362C29.2998 11.1362 30.2449 12.0721 30.3395 13.2886Z" fill="white"/>
<path d="M13.4211 17.313C13.9882 17.8745 14.4608 18.436 15.0279 19.0911C14.9334 19.1846 14.8389 19.2782 14.7444 19.3718C14.2718 18.7167 13.2321 18.436 13.4211 17.313Z" fill="#E7F2DC"/>
<path d="M12.1927 15.2538C12.4763 15.7217 12.6653 16.096 12.9489 16.5639C12.0982 16.4704 12.1927 15.7217 11.9092 15.2538C12.0037 15.1602 12.0982 15.1602 12.1927 15.2538Z" fill="#F1F7EA"/>
<path d="M12.1926 15.2542C12.0981 15.2542 12.0036 15.2542 11.909 15.2542C11.8145 15.067 11.72 14.7863 11.6255 14.5991C11.72 14.5991 11.8145 14.5991 11.8145 14.5991C12.0981 14.7863 12.0981 15.067 12.1926 15.2542Z" fill="#DBECC9"/>
<path d="M32.2299 26.9518C31.1903 26.9518 30.2451 26.1096 30.2451 25.0802C30.2451 24.1443 31.0958 23.2085 32.1354 23.2085C33.1751 23.2085 34.1203 24.1443 34.1203 25.1737C34.1203 26.1096 33.2696 26.9518 32.2299 26.9518Z" fill="#70B22C"/>
<path d="M69.5636 24.9864C69.4691 25.5479 69.2801 26.1094 68.524 26.203C68.0514 26.203 67.7678 25.8287 67.8623 25.3608C67.9569 24.7993 68.0514 23.957 68.902 23.957C69.4691 23.957 69.6581 24.4249 69.5636 24.9864Z" fill="#70B22C"/>
<path d="M77.3138 24.9868C77.3138 25.5483 77.1247 26.2034 76.5576 26.2034C75.896 26.2034 75.8015 25.5483 75.8015 24.8932C75.8015 24.3317 75.9905 23.6766 76.5576 23.7702C77.2192 23.7702 77.3138 24.5189 77.3138 24.9868Z" fill="#70B22C"/>
<path d="M42.343 24.7997C42.4375 24.3317 42.5321 23.6767 43.1937 23.7702C43.8553 23.8638 43.8553 24.5189 43.8553 25.174C43.8553 25.6419 43.6662 26.297 43.0991 26.2034C42.4375 26.1098 42.343 25.4547 42.343 24.7997Z" fill="#70B22C"/>
<path d="M60.301 24.5188C60.4901 23.8637 60.6791 23.3958 61.2462 23.3022C61.4352 23.3022 61.5297 23.4894 61.5297 23.583C61.4352 24.2381 60.9626 24.4252 60.301 24.5188Z" fill="#70B22C"/>
</g>
<defs>
<clipPath id="clip0">
<rect width="81" height="35" fill="white"/>
</clipPath>
</defs>
</svg>
