<svg width="15" height="26" viewBox="0 0 15 26" fill="none" xmlns="http://www.w3.org/2000/svg">
<path d="M13.8866 0.00537665L10.5357 0C6.77096 0 4.33805 2.49611 4.33805 6.35951V9.29167H0.968802C0.677659 9.29167 0.441895 9.5277 0.441895 9.81885V14.0672C0.441895 14.3584 0.677928 14.5941 0.968802 14.5941H4.33805V25.3141C4.33805 25.6052 4.57381 25.841 4.86495 25.841H9.26086C9.55201 25.841 9.78777 25.605 9.78777 25.3141V14.5941H13.7272C14.0183 14.5941 14.2541 14.3584 14.2541 14.0672L14.2557 9.81885C14.2557 9.67905 14.2001 9.54518 14.1014 9.44625C14.0028 9.34731 13.8683 9.29167 13.7285 9.29167H9.78777V6.80604C9.78777 5.61135 10.0725 5.00486 11.6287 5.00486L13.8861 5.00405C14.177 5.00405 14.4127 4.76802 14.4127 4.47714V0.532289C14.4127 0.241681 14.1772 0.00591432 13.8866 0.00537665Z" fill="white"/>
</svg>
