<svg width="26" height="26" viewBox="0 0 26 26" fill="none" xmlns="http://www.w3.org/2000/svg">
<path d="M22.7465 5.26241C22.7448 5.10621 22.6844 4.95315 22.5696 4.83828L17.9096 0.178293C17.9094 0.17809 17.9093 0.178039 17.909 0.177887C17.799 0.0679453 17.647 0 17.4791 0H4.53357C3.82685 0 3.25195 0.574844 3.25195 1.28157V24.7184C3.25195 25.4251 3.8268 25.9999 4.53352 25.9999H21.4662C22.1729 25.9999 22.7478 25.4251 22.7478 24.7184V5.26871C22.7479 5.26647 22.7467 5.26459 22.7465 5.26241ZM18.0879 2.07853L20.6693 4.65994H18.152C18.1167 4.65994 18.0879 4.63115 18.0879 4.59586V2.07853ZM21.5303 24.7184C21.5303 24.7537 21.5016 24.7825 21.4663 24.7825H4.53357C4.49828 24.7825 4.46954 24.7537 4.46954 24.7184V1.28157C4.46954 1.24627 4.49828 1.21753 4.53357 1.21753H16.8704V4.59586C16.8704 5.30253 17.4453 5.87752 18.152 5.87752H21.5304V24.7184H21.5303Z" fill="#CDEDAC"/>
<path d="M18.3872 8.32861H7.61267C7.2765 8.32861 7.00391 8.60116 7.00391 8.93738C7.00391 9.27355 7.2765 9.54614 7.61267 9.54614H18.3872C18.7234 9.54614 18.996 9.27355 18.996 8.93738C18.996 8.60116 18.7234 8.32861 18.3872 8.32861Z" fill="#CDEDAC"/>
<path d="M18.3872 12.0024H7.61267C7.2765 12.0024 7.00391 12.275 7.00391 12.6112C7.00391 12.9474 7.2765 13.22 7.61267 13.22H18.3872C18.7234 13.22 18.996 12.9474 18.996 12.6112C18.996 12.275 18.7234 12.0024 18.3872 12.0024Z" fill="#CDEDAC"/>
<path d="M18.3872 15.6758H7.61267C7.2765 15.6758 7.00391 15.9484 7.00391 16.2845C7.00391 16.6208 7.2765 16.8933 7.61267 16.8933H18.3872C18.7234 16.8933 18.996 16.6208 18.996 16.2845C18.996 15.9484 18.7234 15.6758 18.3872 15.6758Z" fill="#CDEDAC"/>
<path d="M12.9999 19.3491H7.61267C7.2765 19.3491 7.00391 19.6217 7.00391 19.9579C7.00391 20.2941 7.2765 20.5666 7.61267 20.5666H12.9999C13.3361 20.5666 13.6087 20.2941 13.6087 19.9579C13.6087 19.6217 13.3361 19.3491 12.9999 19.3491Z" fill="#CDEDAC"/>
</svg>
