<svg width="30" height="17" viewBox="0 0 30 17" fill="none" xmlns="http://www.w3.org/2000/svg">
<path d="M29.0069 15.0835C28.9716 15.0071 28.9387 14.9437 28.9081 14.8929C28.4021 13.9782 27.4353 12.8555 26.0081 11.5243L25.9779 11.4939L25.9628 11.4789L25.9476 11.4636H25.9323C25.2845 10.8438 24.8744 10.427 24.7026 10.2136C24.3883 9.80715 24.3179 9.39573 24.4897 8.97886C24.611 8.66389 25.0669 7.99874 25.8562 6.98248C26.2713 6.44389 26.6001 6.01223 26.843 5.68702C28.5942 3.3499 29.3535 1.85644 29.1205 1.20607L29.0301 1.05409C28.9693 0.96259 28.8124 0.878884 28.5597 0.802546C28.3063 0.726368 27.9825 0.71377 27.5876 0.764537L23.215 0.794859C23.1442 0.769662 23.043 0.772011 22.9112 0.802546C22.7796 0.833081 22.7138 0.848403 22.7138 0.848403L22.6377 0.886572L22.5773 0.932428C22.5266 0.962749 22.471 1.01608 22.4102 1.09231C22.3497 1.16828 22.2991 1.25743 22.2587 1.35901C21.7826 2.58849 21.2414 3.73159 20.6339 4.78826C20.2594 5.41834 19.9154 5.9644 19.6013 6.42675C19.2876 6.88895 19.0244 7.22948 18.812 7.44777C18.5993 7.66626 18.4073 7.84131 18.2349 7.97354C18.0627 8.10582 17.9313 8.16172 17.8403 8.14127C17.7491 8.12082 17.6632 8.10054 17.5819 8.08025C17.4403 7.98875 17.3264 7.86432 17.2405 7.70684C17.1543 7.54935 17.0962 7.35114 17.0658 7.11236C17.0356 6.87341 17.0178 6.66789 17.0126 6.49509C17.0079 6.3225 17.0101 6.07838 17.0204 5.76341C17.0309 5.44829 17.0356 5.23508 17.0356 5.12329C17.0356 4.73712 17.0431 4.318 17.0582 3.86585C17.0735 3.41369 17.0859 3.05543 17.0962 2.7915C17.1066 2.52731 17.1114 2.2478 17.1114 1.95312C17.1114 1.65844 17.0935 1.42735 17.0582 1.25961C17.0233 1.0921 16.9697 0.929492 16.8992 0.771851C16.8282 0.61437 16.7243 0.492549 16.5879 0.406068C16.4513 0.319693 16.2814 0.251149 16.0793 0.200221C15.5428 0.0783467 14.8596 0.0124183 14.0294 0.00216864C12.1468 -0.0181171 10.9371 0.103917 10.4006 0.368112C10.1881 0.479736 9.9957 0.632253 9.82372 0.82518C9.64147 1.0488 9.61605 1.17084 9.74762 1.19091C10.355 1.28225 10.785 1.50075 11.0381 1.84619L11.1293 2.02924C11.2003 2.16131 11.2711 2.39513 11.342 2.73038C11.4128 3.06563 11.4585 3.43648 11.4786 3.84273C11.5291 4.5846 11.5291 5.21965 11.4786 5.74793C11.4279 6.27643 11.38 6.68785 11.3343 6.98253C11.2887 7.27721 11.2204 7.51599 11.1293 7.69883C11.0381 7.88172 10.9774 7.9935 10.947 8.03408C10.9167 8.07465 10.8914 8.10022 10.8712 8.11025C10.7397 8.16086 10.6029 8.18665 10.4612 8.18665C10.3194 8.18665 10.1474 8.11543 9.94502 7.97311C9.74267 7.83079 9.53266 7.6353 9.315 7.38632C9.09734 7.13729 8.85186 6.78928 8.57846 6.34225C8.30528 5.89522 8.02183 5.36688 7.72828 4.75724L7.48541 4.31512C7.33358 4.03069 7.12618 3.61655 6.86299 3.07305C6.59965 2.52934 6.36688 2.00341 6.16453 1.49536C6.08365 1.28198 5.96213 1.11954 5.8002 1.00775L5.7242 0.961895C5.67368 0.921324 5.59258 0.878244 5.48133 0.832334C5.36992 0.786477 5.25367 0.753593 5.1321 0.733361L0.971911 0.763683C0.546793 0.763683 0.258347 0.86036 0.106466 1.05345L0.0456813 1.14479C0.0153157 1.19566 0 1.27691 0 1.38875C0 1.50053 0.0303656 1.63773 0.0911499 1.80018C0.698461 3.23299 1.3589 4.61482 2.07246 5.94588C2.78603 7.27694 3.4061 8.34914 3.93232 9.16153C4.45863 9.97451 4.99511 10.7418 5.54174 11.463C6.08838 12.1845 6.45021 12.6468 6.62725 12.85C6.8045 13.0535 6.94372 13.2056 7.04492 13.3072L7.42457 13.6729C7.6675 13.9168 8.02422 14.2089 8.49492 14.5493C8.96572 14.8898 9.48693 15.225 10.0588 15.5555C10.6308 15.8855 11.2963 16.1548 12.0555 16.363C12.8146 16.5715 13.5535 16.6551 14.2722 16.6148H16.0183C16.3725 16.5841 16.6408 16.4723 16.8231 16.2794L16.8835 16.203C16.9242 16.1423 16.9622 16.0481 16.9973 15.9213C17.0328 15.7943 17.0505 15.6544 17.0505 15.5022C17.0401 15.0654 17.0732 14.6717 17.1489 14.3211C17.2246 13.9707 17.3109 13.7065 17.4073 13.5286C17.5038 13.3509 17.6126 13.2008 17.7337 13.0792C17.855 12.9574 17.9415 12.8835 17.9922 12.8581C18.0426 12.8326 18.0829 12.8152 18.1133 12.8048C18.3562 12.7235 18.6421 12.8022 18.9714 13.0412C19.3004 13.28 19.609 13.5748 19.8976 13.9253C20.1861 14.276 20.5328 14.6695 20.9376 15.1063C21.3426 15.5433 21.6968 15.8681 22.0004 16.0818L22.3039 16.2647C22.5066 16.3868 22.7698 16.4986 23.0938 16.6001C23.4172 16.7017 23.7005 16.7271 23.9438 16.6763L27.8306 16.6155C28.215 16.6155 28.5141 16.5516 28.7263 16.4248C28.9389 16.2978 29.0652 16.1579 29.106 16.0057C29.1466 15.8533 29.1488 15.6804 29.1137 15.4872C29.0777 15.2944 29.0422 15.1596 29.0069 15.0835Z" fill="white"/>
</svg>
