<svg width="19" height="26" viewBox="0 0 19 26" fill="none" xmlns="http://www.w3.org/2000/svg">
<path d="M9.96162 0C6.39885 0 3.50146 2.89738 3.50146 6.46016C3.50146 10.0229 6.39885 12.9203 9.96162 12.9203C13.5244 12.9203 16.4218 10.0229 16.4218 6.46016C16.4218 2.89738 13.5244 0 9.96162 0ZM9.96162 9.69024C8.18023 9.69024 6.73154 8.24154 6.73154 6.46016C6.73154 4.67877 8.18023 3.23008 9.96162 3.23008C11.743 3.23008 13.1917 4.67877 13.1917 6.46016C13.1917 8.24154 11.743 9.69024 9.96162 9.69024Z" fill="white"/>
<path d="M18.5277 12.7409C17.8962 12.1095 16.8755 12.1095 16.244 12.7409C12.7814 16.2036 7.14487 16.2036 3.68062 12.7409C3.04913 12.1095 2.02843 12.1095 1.39695 12.7409C0.76547 13.3724 0.76547 14.3931 1.39695 15.0262C3.40606 17.0353 5.95298 18.1804 8.57903 18.4792L3.97455 23.0837C3.34307 23.7151 3.34307 24.7358 3.97455 25.3673C4.60603 25.9988 5.62674 25.9988 6.25822 25.3673L9.9615 21.664L13.6648 25.3673C13.9797 25.6823 14.3932 25.8405 14.8066 25.8405C15.2201 25.8405 15.6335 25.6823 15.9485 25.3673C16.5799 24.7358 16.5799 23.7151 15.9485 23.0837L11.344 18.4792C13.97 18.1804 16.5169 17.0353 18.5261 15.0262C19.1575 14.3947 19.1575 13.3724 18.5277 12.7409Z" fill="white"/>
</svg>
